<mxfile host="Electron" modified="2024-03-25T17:17:15.749Z" agent="Mozilla/5.0 (Windows NT 10.0; Win64; x64) AppleWebKit/537.36 (KHTML, like Gecko) draw.io/24.1.0 Chrome/120.0.6099.109 Electron/28.1.0 Safari/537.36" etag="rORJ2xV84wv-r6-357w2" version="24.1.0" type="device" pages="7">
  <diagram id="CD8wnATfAWsa1Bd7zT2W" name="UseCaseDiagram">
    <mxGraphModel dx="1036" dy="750" grid="1" gridSize="10" guides="1" tooltips="1" connect="1" arrows="1" fold="1" page="1" pageScale="1" pageWidth="850" pageHeight="1100" math="0" shadow="0">
      <root>
        <mxCell id="0" />
        <mxCell id="1" parent="0" />
        <mxCell id="n0VVutIzAJZ8xIOVzjZ--19" style="edgeStyle=orthogonalEdgeStyle;rounded=0;orthogonalLoop=1;jettySize=auto;html=1;shape=link;" parent="1" source="n0VVutIzAJZ8xIOVzjZ--5" target="n0VVutIzAJZ8xIOVzjZ--13" edge="1">
          <mxGeometry relative="1" as="geometry">
            <Array as="points">
              <mxPoint x="170" y="465" />
              <mxPoint x="170" y="215" />
            </Array>
          </mxGeometry>
        </mxCell>
        <mxCell id="n0VVutIzAJZ8xIOVzjZ--20" style="edgeStyle=orthogonalEdgeStyle;rounded=0;orthogonalLoop=1;jettySize=auto;html=1;entryX=0;entryY=0.5;entryDx=0;entryDy=0;shape=link;" parent="1" source="n0VVutIzAJZ8xIOVzjZ--5" target="n0VVutIzAJZ8xIOVzjZ--21" edge="1">
          <mxGeometry relative="1" as="geometry" />
        </mxCell>
        <mxCell id="n0VVutIzAJZ8xIOVzjZ--22" style="edgeStyle=orthogonalEdgeStyle;rounded=0;orthogonalLoop=1;jettySize=auto;html=1;entryX=0;entryY=0.5;entryDx=0;entryDy=0;shape=link;" parent="1" source="n0VVutIzAJZ8xIOVzjZ--5" target="n0VVutIzAJZ8xIOVzjZ--18" edge="1">
          <mxGeometry relative="1" as="geometry" />
        </mxCell>
        <mxCell id="n0VVutIzAJZ8xIOVzjZ--24" style="edgeStyle=orthogonalEdgeStyle;rounded=0;orthogonalLoop=1;jettySize=auto;html=1;entryX=0;entryY=0.5;entryDx=0;entryDy=0;shape=link;" parent="1" source="n0VVutIzAJZ8xIOVzjZ--5" target="n0VVutIzAJZ8xIOVzjZ--23" edge="1">
          <mxGeometry relative="1" as="geometry" />
        </mxCell>
        <mxCell id="n0VVutIzAJZ8xIOVzjZ--26" style="edgeStyle=orthogonalEdgeStyle;rounded=0;orthogonalLoop=1;jettySize=auto;html=1;entryX=0;entryY=0.5;entryDx=0;entryDy=0;shape=link;" parent="1" source="n0VVutIzAJZ8xIOVzjZ--5" target="n0VVutIzAJZ8xIOVzjZ--25" edge="1">
          <mxGeometry relative="1" as="geometry" />
        </mxCell>
        <mxCell id="n0VVutIzAJZ8xIOVzjZ--28" style="edgeStyle=orthogonalEdgeStyle;rounded=0;orthogonalLoop=1;jettySize=auto;html=1;entryX=0;entryY=0.5;entryDx=0;entryDy=0;shape=link;" parent="1" source="n0VVutIzAJZ8xIOVzjZ--5" target="n0VVutIzAJZ8xIOVzjZ--27" edge="1">
          <mxGeometry relative="1" as="geometry" />
        </mxCell>
        <mxCell id="n0VVutIzAJZ8xIOVzjZ--5" value="User&lt;br&gt;" style="shape=umlActor;verticalLabelPosition=bottom;verticalAlign=top;html=1;" parent="1" vertex="1">
          <mxGeometry x="50" y="430" width="40" height="70" as="geometry" />
        </mxCell>
        <mxCell id="n0VVutIzAJZ8xIOVzjZ--11" value="Calandar System" style="shape=umlFrame;tabPosition=left;html=1;boundedLbl=1;labelInHeader=1;width=160;height=30;" parent="1" vertex="1">
          <mxGeometry x="225" y="110" width="190" height="680" as="geometry" />
        </mxCell>
        <mxCell id="n0VVutIzAJZ8xIOVzjZ--13" value="Add TODO" style="shape=ellipse;container=1;horizontal=1;horizontalStack=0;resizeParent=1;resizeParentMax=0;resizeLast=0;html=1;dashed=0;collapsible=0;" parent="1" vertex="1">
          <mxGeometry x="250" y="170" width="140" height="90" as="geometry" />
        </mxCell>
        <mxCell id="n0VVutIzAJZ8xIOVzjZ--18" value="Remove TODO" style="shape=ellipse;container=1;horizontal=1;horizontalStack=0;resizeParent=1;resizeParentMax=0;resizeLast=0;html=1;dashed=0;collapsible=0;" parent="1" vertex="1">
          <mxGeometry x="250" y="270" width="140" height="90" as="geometry" />
        </mxCell>
        <mxCell id="n0VVutIzAJZ8xIOVzjZ--21" value="Edit TODO" style="shape=ellipse;container=1;horizontal=1;horizontalStack=0;resizeParent=1;resizeParentMax=0;resizeLast=0;html=1;dashed=0;collapsible=0;" parent="1" vertex="1">
          <mxGeometry x="250" y="370" width="140" height="90" as="geometry" />
        </mxCell>
        <mxCell id="n0VVutIzAJZ8xIOVzjZ--23" value="View Calandar" style="shape=ellipse;container=1;horizontal=1;horizontalStack=0;resizeParent=1;resizeParentMax=0;resizeLast=0;html=1;dashed=0;collapsible=0;" parent="1" vertex="1">
          <mxGeometry x="250" y="570" width="140" height="90" as="geometry" />
        </mxCell>
        <mxCell id="n0VVutIzAJZ8xIOVzjZ--25" value="View Day" style="shape=ellipse;container=1;horizontal=1;horizontalStack=0;resizeParent=1;resizeParentMax=0;resizeLast=0;html=1;dashed=0;collapsible=0;" parent="1" vertex="1">
          <mxGeometry x="250" y="670" width="140" height="90" as="geometry" />
        </mxCell>
        <mxCell id="n0VVutIzAJZ8xIOVzjZ--27" value="View TODO" style="shape=ellipse;container=1;horizontal=1;horizontalStack=0;resizeParent=1;resizeParentMax=0;resizeLast=0;html=1;dashed=0;collapsible=0;" parent="1" vertex="1">
          <mxGeometry x="250" y="470" width="140" height="90" as="geometry" />
        </mxCell>
      </root>
    </mxGraphModel>
  </diagram>
  <diagram id="McECpN6CPw5Lr9Hf9RIz" name="RemoveToDoListItem">
    <mxGraphModel dx="1036" dy="750" grid="1" gridSize="10" guides="1" tooltips="1" connect="1" arrows="1" fold="1" page="1" pageScale="1" pageWidth="1200" pageHeight="1600" math="0" shadow="0">
      <root>
        <mxCell id="0" />
        <mxCell id="1" parent="0" />
        <mxCell id="EOElt_eg_h3pwrQ1-ZW--35" value="" style="shape=umlLifeline;participant=umlActor;perimeter=lifelinePerimeter;whiteSpace=wrap;html=1;container=1;collapsible=0;recursiveResize=0;verticalAlign=top;spacingTop=36;outlineConnect=0;size=80;" parent="1" vertex="1">
          <mxGeometry x="140" y="50" width="40" height="500" as="geometry" />
        </mxCell>
        <mxCell id="EOElt_eg_h3pwrQ1-ZW--36" value=":&lt;u&gt;CALENDAR&lt;/u&gt;" style="shape=umlLifeline;perimeter=lifelinePerimeter;whiteSpace=wrap;html=1;container=1;collapsible=0;recursiveResize=0;outlineConnect=0;size=80;" parent="1" vertex="1">
          <mxGeometry x="280" y="40" width="160" height="510" as="geometry" />
        </mxCell>
        <mxCell id="EOElt_eg_h3pwrQ1-ZW--39" value="" style="html=1;points=[];perimeter=orthogonalPerimeter;" parent="EOElt_eg_h3pwrQ1-ZW--36" vertex="1">
          <mxGeometry x="75" y="120" width="10" height="50" as="geometry" />
        </mxCell>
        <mxCell id="EOElt_eg_h3pwrQ1-ZW--68" value="" style="html=1;points=[];perimeter=orthogonalPerimeter;" parent="EOElt_eg_h3pwrQ1-ZW--36" vertex="1">
          <mxGeometry x="75" y="120" width="10" height="330" as="geometry" />
        </mxCell>
        <mxCell id="EOElt_eg_h3pwrQ1-ZW--69" value="day = getDate(Day)" style="edgeStyle=orthogonalEdgeStyle;html=1;align=left;spacingLeft=2;endArrow=block;rounded=0;exitX=1.075;exitY=0.525;exitDx=0;exitDy=0;exitPerimeter=0;" parent="EOElt_eg_h3pwrQ1-ZW--36" source="EOElt_eg_h3pwrQ1-ZW--39" edge="1">
          <mxGeometry relative="1" as="geometry">
            <mxPoint x="190" y="460" as="sourcePoint" />
            <Array as="points">
              <mxPoint x="140" y="146" />
              <mxPoint x="140" y="160" />
            </Array>
            <mxPoint x="85" y="160" as="targetPoint" />
          </mxGeometry>
        </mxCell>
        <mxCell id="EOElt_eg_h3pwrQ1-ZW--75" value="[day == null]&amp;nbsp; displayError()" style="edgeStyle=orthogonalEdgeStyle;html=1;align=left;spacingLeft=2;endArrow=block;rounded=0;exitX=1.075;exitY=0.525;exitDx=0;exitDy=0;exitPerimeter=0;" parent="EOElt_eg_h3pwrQ1-ZW--36" edge="1">
          <mxGeometry relative="1" as="geometry">
            <mxPoint x="85.75" y="220" as="sourcePoint" />
            <Array as="points">
              <mxPoint x="140" y="219.75" />
              <mxPoint x="140" y="233.75" />
            </Array>
            <mxPoint x="85" y="233.75" as="targetPoint" />
          </mxGeometry>
        </mxCell>
        <mxCell id="EOElt_eg_h3pwrQ1-ZW--95" value="&lt;font style=&quot;font-size: 11px;&quot;&gt;[ToDoListItems.Count == 0]&amp;nbsp; &lt;br&gt;removeDay(day)&lt;/font&gt;" style="edgeStyle=orthogonalEdgeStyle;html=1;align=left;spacingLeft=2;endArrow=block;rounded=0;exitX=1.075;exitY=0.525;exitDx=0;exitDy=0;exitPerimeter=0;entryX=0.939;entryY=0.849;entryDx=0;entryDy=0;entryPerimeter=0;" parent="EOElt_eg_h3pwrQ1-ZW--36" target="EOElt_eg_h3pwrQ1-ZW--68" edge="1">
          <mxGeometry x="-0.2684" y="10" relative="1" as="geometry">
            <mxPoint x="85.75" y="359" as="sourcePoint" />
            <Array as="points">
              <mxPoint x="140" y="359" />
              <mxPoint x="140" y="400" />
              <mxPoint x="84" y="400" />
            </Array>
            <mxPoint x="85" y="372.75" as="targetPoint" />
            <mxPoint as="offset" />
          </mxGeometry>
        </mxCell>
        <mxCell id="EOElt_eg_h3pwrQ1-ZW--66" value="removeToDoListItem(ToDoListItem)" style="html=1;verticalAlign=bottom;startArrow=oval;startFill=1;endArrow=block;startSize=8;rounded=0;" parent="1" edge="1">
          <mxGeometry width="60" relative="1" as="geometry">
            <mxPoint x="159.66666666666663" y="180" as="sourcePoint" />
            <mxPoint x="359.5000000000002" y="180" as="targetPoint" />
          </mxGeometry>
        </mxCell>
        <mxCell id="EOElt_eg_h3pwrQ1-ZW--70" value="[day != null]&amp;nbsp; removeToDoListItem(ToDoListItem)" style="html=1;verticalAlign=bottom;startArrow=oval;startFill=1;endArrow=block;startSize=8;rounded=0;" parent="1" source="EOElt_eg_h3pwrQ1-ZW--36" target="EOElt_eg_h3pwrQ1-ZW--71" edge="1">
          <mxGeometry width="60" relative="1" as="geometry">
            <mxPoint x="470" y="730" as="sourcePoint" />
            <mxPoint x="530" y="730" as="targetPoint" />
            <Array as="points">
              <mxPoint x="610" y="240" />
            </Array>
          </mxGeometry>
        </mxCell>
        <mxCell id="EOElt_eg_h3pwrQ1-ZW--71" value=":&lt;u&gt;DAY&lt;/u&gt;" style="shape=umlLifeline;perimeter=lifelinePerimeter;whiteSpace=wrap;html=1;container=1;collapsible=0;recursiveResize=0;outlineConnect=0;size=80;" parent="1" vertex="1">
          <mxGeometry x="560" y="40" width="160" height="510" as="geometry" />
        </mxCell>
        <mxCell id="EOElt_eg_h3pwrQ1-ZW--72" value="" style="html=1;points=[];perimeter=orthogonalPerimeter;" parent="EOElt_eg_h3pwrQ1-ZW--71" vertex="1">
          <mxGeometry x="75" y="120" width="10" height="50" as="geometry" />
        </mxCell>
        <mxCell id="EOElt_eg_h3pwrQ1-ZW--73" value="" style="html=1;points=[];perimeter=orthogonalPerimeter;" parent="EOElt_eg_h3pwrQ1-ZW--71" vertex="1">
          <mxGeometry x="75" y="120" width="10" height="310" as="geometry" />
        </mxCell>
        <mxCell id="EOElt_eg_h3pwrQ1-ZW--87" value="[!Item Exist] displayError()" style="edgeStyle=orthogonalEdgeStyle;html=1;align=left;spacingLeft=2;endArrow=block;rounded=0;exitX=1.075;exitY=0.525;exitDx=0;exitDy=0;exitPerimeter=0;" parent="EOElt_eg_h3pwrQ1-ZW--71" edge="1">
          <mxGeometry relative="1" as="geometry">
            <mxPoint x="85.75" y="240" as="sourcePoint" />
            <Array as="points">
              <mxPoint x="140" y="239.75" />
              <mxPoint x="140" y="253.75" />
            </Array>
            <mxPoint x="85" y="253.75" as="targetPoint" />
          </mxGeometry>
        </mxCell>
        <mxCell id="EOElt_eg_h3pwrQ1-ZW--97" value="" style="shape=umlDestroy;whiteSpace=wrap;html=1;strokeWidth=3;fontSize=8;" parent="EOElt_eg_h3pwrQ1-ZW--71" vertex="1">
          <mxGeometry x="65" y="415" width="30" height="30" as="geometry" />
        </mxCell>
        <mxCell id="EOElt_eg_h3pwrQ1-ZW--77" value="[Item Exist]&lt;br&gt;removeToDoListItem(ToDoListItem)" style="html=1;verticalAlign=bottom;startArrow=oval;startFill=1;endArrow=block;startSize=8;rounded=0;" parent="1" target="EOElt_eg_h3pwrQ1-ZW--80" edge="1">
          <mxGeometry width="60" relative="1" as="geometry">
            <mxPoint x="639.9973684210524" y="260" as="sourcePoint" />
            <mxPoint x="900.05" y="260" as="targetPoint" />
            <Array as="points">
              <mxPoint x="850" y="260" />
            </Array>
          </mxGeometry>
        </mxCell>
        <mxCell id="EOElt_eg_h3pwrQ1-ZW--78" value=":&lt;u&gt;ToDoList&lt;/u&gt;" style="shape=umlLifeline;perimeter=lifelinePerimeter;whiteSpace=wrap;html=1;container=1;collapsible=0;recursiveResize=0;outlineConnect=0;size=80;" parent="1" vertex="1">
          <mxGeometry x="800" y="40" width="130" height="510" as="geometry" />
        </mxCell>
        <mxCell id="EOElt_eg_h3pwrQ1-ZW--80" value="" style="html=1;points=[];perimeter=orthogonalPerimeter;" parent="EOElt_eg_h3pwrQ1-ZW--78" vertex="1">
          <mxGeometry x="60" y="120" width="10" height="290" as="geometry" />
        </mxCell>
        <mxCell id="EOElt_eg_h3pwrQ1-ZW--90" value="getToDoListItems()" style="html=1;verticalAlign=bottom;startArrow=oval;startFill=1;endArrow=block;startSize=8;rounded=0;" parent="EOElt_eg_h3pwrQ1-ZW--78" edge="1">
          <mxGeometry width="60" relative="1" as="geometry">
            <mxPoint x="-154.99647058823507" y="290" as="sourcePoint" />
            <mxPoint x="60" y="290" as="targetPoint" />
            <Array as="points" />
          </mxGeometry>
        </mxCell>
        <mxCell id="Ud-jT1dSNTBUDDDkWt0N-2" value="&amp;lt;&amp;lt;delete&amp;gt;&amp;gt;" style="html=1;verticalAlign=bottom;startArrow=oval;startFill=1;endArrow=block;startSize=8;rounded=0;" parent="EOElt_eg_h3pwrQ1-ZW--78" edge="1">
          <mxGeometry width="60" relative="1" as="geometry">
            <mxPoint x="-159.9964705882353" y="410" as="sourcePoint" />
            <mxPoint x="60" y="410" as="targetPoint" />
            <Array as="points" />
          </mxGeometry>
        </mxCell>
        <mxCell id="Ud-jT1dSNTBUDDDkWt0N-3" value="" style="shape=umlDestroy;whiteSpace=wrap;html=1;strokeWidth=3;fontSize=8;" parent="EOElt_eg_h3pwrQ1-ZW--78" vertex="1">
          <mxGeometry x="50" y="396" width="30" height="30" as="geometry" />
        </mxCell>
        <mxCell id="EOElt_eg_h3pwrQ1-ZW--81" value=":&lt;u&gt;ToDoListItem&lt;/u&gt;" style="shape=umlLifeline;perimeter=lifelinePerimeter;whiteSpace=wrap;html=1;container=1;collapsible=0;recursiveResize=0;outlineConnect=0;size=80;" parent="1" vertex="1">
          <mxGeometry x="1010" y="40" width="160" height="230" as="geometry" />
        </mxCell>
        <mxCell id="EOElt_eg_h3pwrQ1-ZW--83" value="" style="html=1;points=[];perimeter=orthogonalPerimeter;" parent="EOElt_eg_h3pwrQ1-ZW--81" vertex="1">
          <mxGeometry x="75" y="110" width="10" as="geometry" />
        </mxCell>
        <mxCell id="EOElt_eg_h3pwrQ1-ZW--84" value="&amp;lt;&amp;lt;delete&amp;gt;&amp;gt;" style="html=1;verticalAlign=bottom;startArrow=oval;startFill=1;endArrow=block;startSize=8;rounded=0;" parent="EOElt_eg_h3pwrQ1-ZW--81" edge="1">
          <mxGeometry width="60" relative="1" as="geometry">
            <mxPoint x="-145.00263157894756" y="230" as="sourcePoint" />
            <mxPoint x="75" y="230" as="targetPoint" />
            <Array as="points">
              <mxPoint x="65" y="230" />
            </Array>
          </mxGeometry>
        </mxCell>
        <mxCell id="EOElt_eg_h3pwrQ1-ZW--85" value="" style="shape=umlDestroy;whiteSpace=wrap;html=1;strokeWidth=3;" parent="EOElt_eg_h3pwrQ1-ZW--81" vertex="1">
          <mxGeometry x="65" y="215" width="30" height="30" as="geometry" />
        </mxCell>
        <mxCell id="EOElt_eg_h3pwrQ1-ZW--89" value="getToDoList()" style="html=1;verticalAlign=bottom;startArrow=oval;startFill=1;endArrow=block;startSize=8;rounded=0;" parent="1" edge="1">
          <mxGeometry width="60" relative="1" as="geometry">
            <mxPoint x="360" y="320" as="sourcePoint" />
            <mxPoint x="640.18" y="320" as="targetPoint" />
            <Array as="points">
              <mxPoint x="610.68" y="320" />
            </Array>
          </mxGeometry>
        </mxCell>
        <mxCell id="EOElt_eg_h3pwrQ1-ZW--91" value="ToDoListItems.Count" style="html=1;verticalAlign=bottom;endArrow=open;dashed=1;endSize=8;rounded=0;entryX=0.988;entryY=0.645;entryDx=0;entryDy=0;entryPerimeter=0;" parent="1" target="EOElt_eg_h3pwrQ1-ZW--73" edge="1">
          <mxGeometry relative="1" as="geometry">
            <mxPoint x="860" y="360" as="sourcePoint" />
            <mxPoint x="650" y="360" as="targetPoint" />
          </mxGeometry>
        </mxCell>
        <mxCell id="EOElt_eg_h3pwrQ1-ZW--96" value="&amp;lt;&amp;lt;delete&amp;gt;&amp;gt;" style="html=1;verticalAlign=bottom;endArrow=block;rounded=0;" parent="1" edge="1">
          <mxGeometry x="0.604" width="80" relative="1" as="geometry">
            <mxPoint x="420" y="430" as="sourcePoint" />
            <mxPoint x="635" y="430" as="targetPoint" />
            <mxPoint as="offset" />
          </mxGeometry>
        </mxCell>
        <mxCell id="EOElt_eg_h3pwrQ1-ZW--94" value="ToDoListItems.Count" style="html=1;verticalAlign=bottom;endArrow=open;dashed=1;endSize=8;rounded=0;exitX=0.024;exitY=0.645;exitDx=0;exitDy=0;exitPerimeter=0;" parent="1" source="EOElt_eg_h3pwrQ1-ZW--73" target="EOElt_eg_h3pwrQ1-ZW--36" edge="1">
          <mxGeometry relative="1" as="geometry">
            <mxPoint x="630" y="360" as="sourcePoint" />
            <mxPoint x="425" y="360" as="targetPoint" />
          </mxGeometry>
        </mxCell>
      </root>
    </mxGraphModel>
  </diagram>
  <diagram id="x9tXAtEQEPBD54C2WDN2" name="AddToDoListItem">
    <mxGraphModel dx="1036" dy="750" grid="1" gridSize="10" guides="1" tooltips="1" connect="1" arrows="1" fold="1" page="1" pageScale="1" pageWidth="1200" pageHeight="1600" math="0" shadow="0">
      <root>
        <mxCell id="0" />
        <mxCell id="1" parent="0" />
        <mxCell id="t34612R61fwXFaEzqnxj-17" value="[day == null]" style="shape=umlFrame;whiteSpace=wrap;html=1;fontSize=11;width=80;height=30;" parent="1" vertex="1">
          <mxGeometry x="250" y="350" width="670" height="360" as="geometry" />
        </mxCell>
        <mxCell id="yiQcwiXGG0fYA4Tj7muS-1" value="&lt;span style=&quot;text-align: left;&quot;&gt;[day != null]&lt;/span&gt;" style="shape=umlFrame;whiteSpace=wrap;html=1;fontSize=11;width=80;height=30;" parent="1" vertex="1">
          <mxGeometry x="250" y="220" width="670" height="130" as="geometry" />
        </mxCell>
        <mxCell id="hVwX895VPtt7PhVnAmIF-1" value="" style="shape=umlLifeline;participant=umlActor;perimeter=lifelinePerimeter;whiteSpace=wrap;html=1;container=1;collapsible=0;recursiveResize=0;verticalAlign=top;spacingTop=36;outlineConnect=0;size=80;" parent="1" vertex="1">
          <mxGeometry x="140" y="50" width="40" height="660" as="geometry" />
        </mxCell>
        <mxCell id="hVwX895VPtt7PhVnAmIF-2" value=":&lt;u&gt;CALENDAR&lt;/u&gt;" style="shape=umlLifeline;perimeter=lifelinePerimeter;whiteSpace=wrap;html=1;container=1;collapsible=0;recursiveResize=0;outlineConnect=0;size=80;" parent="1" vertex="1">
          <mxGeometry x="280" y="40" width="160" height="670" as="geometry" />
        </mxCell>
        <mxCell id="hVwX895VPtt7PhVnAmIF-3" value="" style="html=1;points=[];perimeter=orthogonalPerimeter;" parent="hVwX895VPtt7PhVnAmIF-2" vertex="1">
          <mxGeometry x="75" y="120" width="10" height="50" as="geometry" />
        </mxCell>
        <mxCell id="hVwX895VPtt7PhVnAmIF-4" value="" style="html=1;points=[];perimeter=orthogonalPerimeter;" parent="hVwX895VPtt7PhVnAmIF-2" vertex="1">
          <mxGeometry x="75" y="120" width="10" height="500" as="geometry" />
        </mxCell>
        <mxCell id="hVwX895VPtt7PhVnAmIF-5" value="day = getDate(Day)" style="edgeStyle=orthogonalEdgeStyle;html=1;align=left;spacingLeft=2;endArrow=block;rounded=0;exitX=1.075;exitY=0.525;exitDx=0;exitDy=0;exitPerimeter=0;" parent="hVwX895VPtt7PhVnAmIF-2" source="hVwX895VPtt7PhVnAmIF-3" edge="1">
          <mxGeometry relative="1" as="geometry">
            <mxPoint x="190" y="460" as="sourcePoint" />
            <Array as="points">
              <mxPoint x="140" y="146" />
              <mxPoint x="140" y="160" />
            </Array>
            <mxPoint x="85" y="160" as="targetPoint" />
          </mxGeometry>
        </mxCell>
        <mxCell id="t34612R61fwXFaEzqnxj-24" value="addDay(day)" style="edgeStyle=orthogonalEdgeStyle;html=1;align=left;spacingLeft=2;endArrow=block;rounded=0;exitX=1.075;exitY=0.525;exitDx=0;exitDy=0;exitPerimeter=0;" parent="hVwX895VPtt7PhVnAmIF-2" edge="1">
          <mxGeometry relative="1" as="geometry">
            <mxPoint x="85.75" y="570" as="sourcePoint" />
            <Array as="points">
              <mxPoint x="140" y="569.75" />
              <mxPoint x="140" y="583.75" />
            </Array>
            <mxPoint x="85" y="583.75" as="targetPoint" />
          </mxGeometry>
        </mxCell>
        <mxCell id="hVwX895VPtt7PhVnAmIF-8" value="addToDoListItem(ToDoListItem)" style="html=1;verticalAlign=bottom;startArrow=oval;startFill=1;endArrow=block;startSize=8;rounded=0;" parent="1" edge="1">
          <mxGeometry width="60" relative="1" as="geometry">
            <mxPoint x="159.66666666666652" y="180" as="sourcePoint" />
            <mxPoint x="359.5000000000002" y="180" as="targetPoint" />
          </mxGeometry>
        </mxCell>
        <mxCell id="hVwX895VPtt7PhVnAmIF-10" value=":&lt;u&gt;DAY&lt;/u&gt;" style="shape=umlLifeline;perimeter=lifelinePerimeter;whiteSpace=wrap;html=1;container=1;collapsible=0;recursiveResize=0;outlineConnect=0;size=80;" parent="1" vertex="1">
          <mxGeometry x="520" y="40" width="160" height="310" as="geometry" />
        </mxCell>
        <mxCell id="hVwX895VPtt7PhVnAmIF-11" value="" style="html=1;points=[];perimeter=orthogonalPerimeter;" parent="hVwX895VPtt7PhVnAmIF-10" vertex="1">
          <mxGeometry x="75" y="120" width="10" height="50" as="geometry" />
        </mxCell>
        <mxCell id="hVwX895VPtt7PhVnAmIF-12" value="" style="html=1;points=[];perimeter=orthogonalPerimeter;" parent="hVwX895VPtt7PhVnAmIF-10" vertex="1">
          <mxGeometry x="75" y="120" width="10" height="140" as="geometry" />
        </mxCell>
        <mxCell id="hVwX895VPtt7PhVnAmIF-15" value="addToDoListItem(ToDoListItem)" style="html=1;verticalAlign=bottom;startArrow=oval;startFill=1;endArrow=block;startSize=8;rounded=0;entryX=-0.089;entryY=0.933;entryDx=0;entryDy=0;entryPerimeter=0;" parent="1" target="hVwX895VPtt7PhVnAmIF-17" edge="1">
          <mxGeometry width="60" relative="1" as="geometry">
            <mxPoint x="600" y="290" as="sourcePoint" />
            <mxPoint x="860" y="290" as="targetPoint" />
            <Array as="points" />
          </mxGeometry>
        </mxCell>
        <mxCell id="hVwX895VPtt7PhVnAmIF-16" value=":&lt;u&gt;ToDoList&lt;/u&gt;" style="shape=umlLifeline;perimeter=lifelinePerimeter;whiteSpace=wrap;html=1;container=1;collapsible=0;recursiveResize=0;outlineConnect=0;size=80;" parent="1" vertex="1">
          <mxGeometry x="760" y="40" width="130" height="310" as="geometry" />
        </mxCell>
        <mxCell id="hVwX895VPtt7PhVnAmIF-17" value="" style="html=1;points=[];perimeter=orthogonalPerimeter;" parent="hVwX895VPtt7PhVnAmIF-16" vertex="1">
          <mxGeometry x="60" y="120" width="10" height="140" as="geometry" />
        </mxCell>
        <mxCell id="hVwX895VPtt7PhVnAmIF-9" value="addToDoListItem(ToDoListItem)" style="html=1;verticalAlign=bottom;startArrow=oval;startFill=1;endArrow=block;startSize=8;rounded=0;entryX=0.114;entryY=0.859;entryDx=0;entryDy=0;entryPerimeter=0;" parent="1" target="hVwX895VPtt7PhVnAmIF-12" edge="1">
          <mxGeometry width="60" relative="1" as="geometry">
            <mxPoint x="359.81034482758616" y="280" as="sourcePoint" />
            <mxPoint x="590" y="280" as="targetPoint" />
            <Array as="points" />
          </mxGeometry>
        </mxCell>
        <mxCell id="t34612R61fwXFaEzqnxj-14" value=":&lt;u&gt;DAY&lt;/u&gt;" style="shape=umlLifeline;perimeter=lifelinePerimeter;whiteSpace=wrap;html=1;container=1;collapsible=0;recursiveResize=0;outlineConnect=0;size=80;" parent="1" vertex="1">
          <mxGeometry x="520" y="360" width="160" height="350" as="geometry" />
        </mxCell>
        <mxCell id="t34612R61fwXFaEzqnxj-15" value="" style="html=1;points=[];perimeter=orthogonalPerimeter;" parent="t34612R61fwXFaEzqnxj-14" vertex="1">
          <mxGeometry x="75" y="100" width="10" height="160" as="geometry" />
        </mxCell>
        <mxCell id="t34612R61fwXFaEzqnxj-19" value="&amp;lt;&amp;lt;create&amp;gt;&amp;gt;" style="html=1;verticalAlign=bottom;startArrow=oval;startFill=1;endArrow=block;startSize=8;rounded=0;fontSize=11;" parent="1" edge="1">
          <mxGeometry width="60" relative="1" as="geometry">
            <mxPoint x="360" y="401" as="sourcePoint" />
            <mxPoint x="520" y="401" as="targetPoint" />
          </mxGeometry>
        </mxCell>
        <mxCell id="t34612R61fwXFaEzqnxj-20" value=":&lt;u&gt;ToDoList&lt;/u&gt;" style="shape=umlLifeline;perimeter=lifelinePerimeter;whiteSpace=wrap;html=1;container=1;collapsible=0;recursiveResize=0;outlineConnect=0;size=80;" parent="1" vertex="1">
          <mxGeometry x="760" y="440" width="130" height="270" as="geometry" />
        </mxCell>
        <mxCell id="t34612R61fwXFaEzqnxj-21" value="" style="html=1;points=[];perimeter=orthogonalPerimeter;" parent="t34612R61fwXFaEzqnxj-20" vertex="1">
          <mxGeometry x="60" y="120" width="10" height="60" as="geometry" />
        </mxCell>
        <mxCell id="t34612R61fwXFaEzqnxj-22" value="&amp;lt;&amp;lt;create&amp;gt;&amp;gt;" style="html=1;verticalAlign=bottom;startArrow=oval;startFill=1;endArrow=block;startSize=8;rounded=0;fontSize=11;" parent="1" edge="1">
          <mxGeometry width="60" relative="1" as="geometry">
            <mxPoint x="600" y="480" as="sourcePoint" />
            <mxPoint x="760" y="481" as="targetPoint" />
          </mxGeometry>
        </mxCell>
        <mxCell id="t34612R61fwXFaEzqnxj-23" value="addToDoListItem(ToDoListItem)" style="html=1;verticalAlign=bottom;startArrow=oval;startFill=1;endArrow=block;startSize=8;rounded=0;" parent="1" source="t34612R61fwXFaEzqnxj-14" edge="1">
          <mxGeometry width="60" relative="1" as="geometry">
            <mxPoint x="639.9973684210524" y="568" as="sourcePoint" />
            <mxPoint x="820" y="568" as="targetPoint" />
            <Array as="points">
              <mxPoint x="810" y="568" />
            </Array>
          </mxGeometry>
        </mxCell>
      </root>
    </mxGraphModel>
  </diagram>
  <diagram id="UHNEPJPopb4H67lEvl7c" name="EditToDoListitem">
    <mxGraphModel dx="1036" dy="750" grid="1" gridSize="10" guides="1" tooltips="1" connect="1" arrows="1" fold="1" page="1" pageScale="1" pageWidth="1200" pageHeight="1600" math="0" shadow="0">
      <root>
        <mxCell id="0" />
        <mxCell id="1" parent="0" />
        <mxCell id="GsL0xpuYW171py8XLxSO-1" value="Edit TODO" style="shape=ellipse;container=1;horizontal=1;horizontalStack=0;resizeParent=1;resizeParentMax=0;resizeLast=0;html=1;dashed=0;collapsible=0;" parent="1" vertex="1">
          <mxGeometry x="320" y="160" width="140" height="90" as="geometry" />
        </mxCell>
        <mxCell id="GsL0xpuYW171py8XLxSO-2" value="SetTitle" style="ellipse;whiteSpace=wrap;html=1;fontSize=11;" parent="1" vertex="1">
          <mxGeometry x="460" y="360" width="140" height="70" as="geometry" />
        </mxCell>
        <mxCell id="GsL0xpuYW171py8XLxSO-5" value="SetPriority" style="ellipse;whiteSpace=wrap;html=1;fontSize=11;" parent="1" vertex="1">
          <mxGeometry x="320" y="360" width="140" height="70" as="geometry" />
        </mxCell>
        <mxCell id="GsL0xpuYW171py8XLxSO-6" value="SetDueDate" style="ellipse;whiteSpace=wrap;html=1;fontSize=11;" parent="1" vertex="1">
          <mxGeometry x="180" y="360" width="140" height="70" as="geometry" />
        </mxCell>
        <mxCell id="GsL0xpuYW171py8XLxSO-7" value="Extends" style="endArrow=block;endSize=16;endFill=0;html=1;rounded=0;fontSize=11;" parent="1" source="GsL0xpuYW171py8XLxSO-6" target="GsL0xpuYW171py8XLxSO-1" edge="1">
          <mxGeometry width="160" relative="1" as="geometry">
            <mxPoint x="330" y="510" as="sourcePoint" />
            <mxPoint x="490" y="510" as="targetPoint" />
          </mxGeometry>
        </mxCell>
        <mxCell id="GsL0xpuYW171py8XLxSO-8" value="Extends" style="endArrow=block;endSize=16;endFill=0;html=1;rounded=0;fontSize=11;exitX=0.455;exitY=-0.02;exitDx=0;exitDy=0;exitPerimeter=0;" parent="1" source="GsL0xpuYW171py8XLxSO-5" target="GsL0xpuYW171py8XLxSO-1" edge="1">
          <mxGeometry width="160" relative="1" as="geometry">
            <mxPoint x="377.3043395426338" y="372.1478658682199" as="sourcePoint" />
            <mxPoint x="460.0021052631581" y="260" as="targetPoint" />
          </mxGeometry>
        </mxCell>
        <mxCell id="GsL0xpuYW171py8XLxSO-9" value="Extends" style="endArrow=block;endSize=16;endFill=0;html=1;rounded=0;fontSize=11;" parent="1" source="GsL0xpuYW171py8XLxSO-2" target="GsL0xpuYW171py8XLxSO-1" edge="1">
          <mxGeometry width="160" relative="1" as="geometry">
            <mxPoint x="517.0043395426338" y="362.1478658682199" as="sourcePoint" />
            <mxPoint x="599.7021052631582" y="250" as="targetPoint" />
          </mxGeometry>
        </mxCell>
      </root>
    </mxGraphModel>
  </diagram>
  <diagram name="SetTitle" id="Dz3HMPxs0mGn0BedMQkW">
    <mxGraphModel dx="1036" dy="750" grid="1" gridSize="10" guides="1" tooltips="1" connect="1" arrows="1" fold="1" page="1" pageScale="1" pageWidth="1200" pageHeight="1600" math="0" shadow="0">
      <root>
        <mxCell id="Ncwv-TTKheuRKf7BPtPY-0" />
        <mxCell id="Ncwv-TTKheuRKf7BPtPY-1" parent="Ncwv-TTKheuRKf7BPtPY-0" />
        <mxCell id="ZOOwhNNhYxz8OgjNY_LB-0" value="Attribute == Title" style="shape=umlFrame;whiteSpace=wrap;html=1;fontSize=11;width=140;height=34;" parent="Ncwv-TTKheuRKf7BPtPY-1" vertex="1">
          <mxGeometry x="70" y="300" width="640" height="60" as="geometry" />
        </mxCell>
        <mxCell id="Ncwv-TTKheuRKf7BPtPY-6" value="" style="shape=umlLifeline;participant=umlActor;perimeter=lifelinePerimeter;whiteSpace=wrap;html=1;container=1;collapsible=0;recursiveResize=0;verticalAlign=top;spacingTop=36;outlineConnect=0;size=80;" parent="Ncwv-TTKheuRKf7BPtPY-1" vertex="1">
          <mxGeometry x="210" y="40" width="40" height="320" as="geometry" />
        </mxCell>
        <mxCell id="Ncwv-TTKheuRKf7BPtPY-7" value="selectAttributeToChange()" style="html=1;verticalAlign=bottom;startArrow=oval;startFill=1;endArrow=block;startSize=8;rounded=0;fontSize=11;" parent="Ncwv-TTKheuRKf7BPtPY-6" target="Ncwv-TTKheuRKf7BPtPY-8" edge="1">
          <mxGeometry width="60" relative="1" as="geometry">
            <mxPoint x="20" y="199" as="sourcePoint" />
            <mxPoint x="259.5" y="199" as="targetPoint" />
          </mxGeometry>
        </mxCell>
        <mxCell id="Ncwv-TTKheuRKf7BPtPY-8" value="&lt;u&gt;:UI&lt;/u&gt;" style="shape=umlLifeline;perimeter=lifelinePerimeter;whiteSpace=wrap;html=1;container=1;collapsible=0;recursiveResize=0;outlineConnect=0;fontSize=11;" parent="Ncwv-TTKheuRKf7BPtPY-1" vertex="1">
          <mxGeometry x="390" y="40" width="120" height="320" as="geometry" />
        </mxCell>
        <mxCell id="Ncwv-TTKheuRKf7BPtPY-9" value="selectToDoListItem()" style="html=1;verticalAlign=bottom;startArrow=oval;startFill=1;endArrow=block;startSize=8;rounded=0;fontSize=11;" parent="Ncwv-TTKheuRKf7BPtPY-1" edge="1">
          <mxGeometry width="60" relative="1" as="geometry">
            <mxPoint x="229.5" y="161" as="sourcePoint" />
            <mxPoint x="449.5" y="161" as="targetPoint" />
          </mxGeometry>
        </mxCell>
        <mxCell id="Ncwv-TTKheuRKf7BPtPY-10" value="&lt;u&gt;:ToDoListItem&lt;/u&gt;" style="shape=umlLifeline;perimeter=lifelinePerimeter;whiteSpace=wrap;html=1;container=1;collapsible=0;recursiveResize=0;outlineConnect=0;fontSize=11;" parent="Ncwv-TTKheuRKf7BPtPY-1" vertex="1">
          <mxGeometry x="600" y="40" width="120" height="320" as="geometry" />
        </mxCell>
        <mxCell id="Ncwv-TTKheuRKf7BPtPY-11" value="ToDoListItem" style="html=1;verticalAlign=bottom;endArrow=open;dashed=1;endSize=8;rounded=0;fontSize=11;exitX=0.475;exitY=0.245;exitDx=0;exitDy=0;exitPerimeter=0;" parent="Ncwv-TTKheuRKf7BPtPY-1" edge="1">
          <mxGeometry relative="1" as="geometry">
            <mxPoint x="447" y="200.70000000000005" as="sourcePoint" />
            <mxPoint x="229.5" y="200.70000000000005" as="targetPoint" />
          </mxGeometry>
        </mxCell>
        <mxCell id="Ncwv-TTKheuRKf7BPtPY-12" value="Attribute" style="html=1;verticalAlign=bottom;endArrow=open;dashed=1;endSize=8;rounded=0;fontSize=11;entryX=0.55;entryY=0.362;entryDx=0;entryDy=0;entryPerimeter=0;" parent="Ncwv-TTKheuRKf7BPtPY-1" edge="1">
          <mxGeometry relative="1" as="geometry">
            <mxPoint x="449.5" y="280.31999999999994" as="sourcePoint" />
            <mxPoint x="232" y="280.31999999999994" as="targetPoint" />
          </mxGeometry>
        </mxCell>
        <mxCell id="Ncwv-TTKheuRKf7BPtPY-13" value="setTitle(Title)" style="html=1;verticalAlign=bottom;startArrow=oval;startFill=1;endArrow=block;startSize=8;rounded=0;fontSize=11;" parent="Ncwv-TTKheuRKf7BPtPY-1" edge="1">
          <mxGeometry x="-0.5475" y="1" width="60" relative="1" as="geometry">
            <mxPoint x="229.5" y="329" as="sourcePoint" />
            <mxPoint x="659.5" y="329" as="targetPoint" />
            <mxPoint as="offset" />
          </mxGeometry>
        </mxCell>
      </root>
    </mxGraphModel>
  </diagram>
  <diagram name="SetPriority" id="FJKJvSjMSiVrsyTzUw9z">
    <mxGraphModel dx="1036" dy="750" grid="1" gridSize="10" guides="1" tooltips="1" connect="1" arrows="1" fold="1" page="1" pageScale="1" pageWidth="1200" pageHeight="1600" math="0" shadow="0">
      <root>
        <mxCell id="Kmv-QArHyZlEkZVhdiJU-0" />
        <mxCell id="Kmv-QArHyZlEkZVhdiJU-1" parent="Kmv-QArHyZlEkZVhdiJU-0" />
        <mxCell id="Kmv-QArHyZlEkZVhdiJU-2" value="Attribute == Priority&lt;span style=&quot;color: rgba(0, 0, 0, 0); font-family: monospace; font-size: 0px; text-align: start;&quot;&gt;%3CmxGraphModel%3E%3Croot%3E%3CmxCell%20id%3D%220%22%2F%3E%3CmxCell%20id%3D%221%22%20parent%3D%220%22%2F%3E%3CmxCell%20id%3D%222%22%20value%3D%22Attribute%20%3D%3D%20DueDate%22%20style%3D%22shape%3DumlFrame%3BwhiteSpace%3Dwrap%3Bhtml%3D1%3BfontSize%3D11%3Bwidth%3D140%3Bheight%3D34%3B%22%20vertex%3D%221%22%20parent%3D%221%22%3E%3CmxGeometry%20x%3D%2260%22%20y%3D%22300%22%20width%3D%22700%22%20height%3D%22200%22%20as%3D%22geometry%22%2F%3E%3C%2FmxCell%3E%3C%2Froot%3E%3C%2FmxGraphModel%3E&lt;/span&gt;" style="shape=umlFrame;whiteSpace=wrap;html=1;fontSize=11;width=140;height=34;" parent="Kmv-QArHyZlEkZVhdiJU-1" vertex="1">
          <mxGeometry x="40" y="340" width="1160" height="460" as="geometry" />
        </mxCell>
        <mxCell id="Kmv-QArHyZlEkZVhdiJU-3" value="[ToDoListItems.Count &amp;gt; 0]" style="shape=umlFrame;whiteSpace=wrap;html=1;fontSize=11;width=150;height=40;" parent="Kmv-QArHyZlEkZVhdiJU-1" vertex="1">
          <mxGeometry x="70" y="520" width="1130" height="240" as="geometry" />
        </mxCell>
        <mxCell id="Kmv-QArHyZlEkZVhdiJU-6" value="" style="shape=umlLifeline;participant=umlActor;perimeter=lifelinePerimeter;whiteSpace=wrap;html=1;container=1;collapsible=0;recursiveResize=0;verticalAlign=top;spacingTop=36;outlineConnect=0;size=80;" parent="Kmv-QArHyZlEkZVhdiJU-1" vertex="1">
          <mxGeometry x="210" y="80" width="40" height="680" as="geometry" />
        </mxCell>
        <mxCell id="Kmv-QArHyZlEkZVhdiJU-8" value="&lt;u&gt;:UI&lt;/u&gt;" style="shape=umlLifeline;perimeter=lifelinePerimeter;whiteSpace=wrap;html=1;container=1;collapsible=0;recursiveResize=0;outlineConnect=0;fontSize=11;" parent="Kmv-QArHyZlEkZVhdiJU-1" vertex="1">
          <mxGeometry x="390" y="80" width="120" height="720" as="geometry" />
        </mxCell>
        <mxCell id="Kmv-QArHyZlEkZVhdiJU-7" value="selectAttributeToChange()" style="html=1;verticalAlign=bottom;startArrow=oval;startFill=1;endArrow=block;startSize=8;rounded=0;fontSize=11;" parent="Kmv-QArHyZlEkZVhdiJU-8" edge="1">
          <mxGeometry width="60" relative="1" as="geometry">
            <mxPoint x="-160" y="199" as="sourcePoint" />
            <mxPoint x="59.5" y="199" as="targetPoint" />
          </mxGeometry>
        </mxCell>
        <mxCell id="Kmv-QArHyZlEkZVhdiJU-9" value="selectToDoListItem()" style="html=1;verticalAlign=bottom;startArrow=oval;startFill=1;endArrow=block;startSize=8;rounded=0;fontSize=11;" parent="Kmv-QArHyZlEkZVhdiJU-8" edge="1">
          <mxGeometry width="60" relative="1" as="geometry">
            <mxPoint x="-160.5" y="121" as="sourcePoint" />
            <mxPoint x="59.5" y="121" as="targetPoint" />
          </mxGeometry>
        </mxCell>
        <mxCell id="Kmv-QArHyZlEkZVhdiJU-11" value="ToDoListItem" style="html=1;verticalAlign=bottom;endArrow=open;dashed=1;endSize=8;rounded=0;fontSize=11;exitX=0.475;exitY=0.245;exitDx=0;exitDy=0;exitPerimeter=0;" parent="Kmv-QArHyZlEkZVhdiJU-8" edge="1">
          <mxGeometry relative="1" as="geometry">
            <mxPoint x="57" y="160.70000000000005" as="sourcePoint" />
            <mxPoint x="-160.5" y="160.70000000000005" as="targetPoint" />
          </mxGeometry>
        </mxCell>
        <mxCell id="Kmv-QArHyZlEkZVhdiJU-12" value="Attribute" style="html=1;verticalAlign=bottom;endArrow=open;dashed=1;endSize=8;rounded=0;fontSize=11;entryX=0.55;entryY=0.362;entryDx=0;entryDy=0;entryPerimeter=0;" parent="Kmv-QArHyZlEkZVhdiJU-8" edge="1">
          <mxGeometry relative="1" as="geometry">
            <mxPoint x="59.5" y="240.31999999999994" as="sourcePoint" />
            <mxPoint x="-158" y="240.31999999999994" as="targetPoint" />
          </mxGeometry>
        </mxCell>
        <mxCell id="Kmv-QArHyZlEkZVhdiJU-10" value="&lt;u&gt;:ToDoListItem&lt;/u&gt;" style="shape=umlLifeline;perimeter=lifelinePerimeter;whiteSpace=wrap;html=1;container=1;collapsible=0;recursiveResize=0;outlineConnect=0;fontSize=11;" parent="Kmv-QArHyZlEkZVhdiJU-1" vertex="1">
          <mxGeometry x="600" y="360" width="120" height="360" as="geometry" />
        </mxCell>
        <mxCell id="Kmv-QArHyZlEkZVhdiJU-14" value="setPriority(Priority)" style="html=1;verticalAlign=bottom;startArrow=oval;startFill=1;endArrow=block;startSize=8;rounded=0;fontSize=11;" parent="Kmv-QArHyZlEkZVhdiJU-1" target="Kmv-QArHyZlEkZVhdiJU-10" edge="1">
          <mxGeometry x="-0.5475" y="1" width="60" relative="1" as="geometry">
            <mxPoint x="229.5" y="427" as="sourcePoint" />
            <mxPoint x="629.5" y="427" as="targetPoint" />
            <mxPoint as="offset" />
          </mxGeometry>
        </mxCell>
        <mxCell id="Kmv-QArHyZlEkZVhdiJU-15" value="&lt;u&gt;:ToDoList&lt;/u&gt;" style="shape=umlLifeline;perimeter=lifelinePerimeter;whiteSpace=wrap;html=1;container=1;collapsible=0;recursiveResize=0;outlineConnect=0;fontSize=11;" parent="Kmv-QArHyZlEkZVhdiJU-1" vertex="1">
          <mxGeometry x="820" y="400" width="120" height="400" as="geometry" />
        </mxCell>
        <mxCell id="Kmv-QArHyZlEkZVhdiJU-17" value="getToDoListItems()" style="html=1;verticalAlign=bottom;startArrow=oval;startFill=1;endArrow=block;startSize=8;rounded=0;fontSize=11;" parent="Kmv-QArHyZlEkZVhdiJU-1" edge="1">
          <mxGeometry width="60" relative="1" as="geometry">
            <mxPoint x="229.07142857142867" y="465" as="sourcePoint" />
            <mxPoint x="879.5" y="465" as="targetPoint" />
          </mxGeometry>
        </mxCell>
        <mxCell id="Kmv-QArHyZlEkZVhdiJU-18" value="&lt;u&gt;:ToDoListItemCopy&lt;/u&gt;" style="shape=umlLifeline;perimeter=lifelinePerimeter;whiteSpace=wrap;html=1;container=1;collapsible=0;recursiveResize=0;outlineConnect=0;fontSize=11;" parent="Kmv-QArHyZlEkZVhdiJU-1" vertex="1">
          <mxGeometry x="1040" y="560" width="120" height="240" as="geometry" />
        </mxCell>
        <mxCell id="Kmv-QArHyZlEkZVhdiJU-19" value="ToDoListItemCopy = ToDoListItem(ToDoListItem) &amp;lt;&amp;lt;create&amp;gt;&amp;gt;" style="html=1;verticalAlign=bottom;startArrow=oval;startFill=1;endArrow=block;startSize=8;rounded=0;fontSize=11;" parent="Kmv-QArHyZlEkZVhdiJU-1" edge="1">
          <mxGeometry x="-0.0521" y="3" width="60" relative="1" as="geometry">
            <mxPoint x="229.38888888888914" y="566" as="sourcePoint" />
            <mxPoint x="1040" y="566" as="targetPoint" />
            <mxPoint as="offset" />
          </mxGeometry>
        </mxCell>
        <mxCell id="Kmv-QArHyZlEkZVhdiJU-20" value="removeToDoListItem(ToDoListItem)" style="html=1;verticalAlign=bottom;startArrow=oval;startFill=1;endArrow=block;startSize=8;rounded=0;fontSize=11;" parent="Kmv-QArHyZlEkZVhdiJU-1" source="Kmv-QArHyZlEkZVhdiJU-6" edge="1">
          <mxGeometry width="60" relative="1" as="geometry">
            <mxPoint x="659.3235294117646" y="625" as="sourcePoint" />
            <mxPoint x="879.5" y="625" as="targetPoint" />
          </mxGeometry>
        </mxCell>
        <mxCell id="Kmv-QArHyZlEkZVhdiJU-21" value="" style="shape=umlDestroy;whiteSpace=wrap;html=1;strokeWidth=3;fontSize=11;" parent="Kmv-QArHyZlEkZVhdiJU-1" vertex="1">
          <mxGeometry x="645" y="660" width="30" height="30" as="geometry" />
        </mxCell>
        <mxCell id="Kmv-QArHyZlEkZVhdiJU-22" value="&amp;lt;&amp;lt;delete&amp;gt;&amp;gt;" style="html=1;verticalAlign=bottom;startArrow=oval;startFill=1;endArrow=block;startSize=8;rounded=0;fontSize=11;entryX=0.506;entryY=0.633;entryDx=0;entryDy=0;entryPerimeter=0;" parent="Kmv-QArHyZlEkZVhdiJU-1" edge="1">
          <mxGeometry width="60" relative="1" as="geometry">
            <mxPoint x="879.5" y="674.99" as="sourcePoint" />
            <mxPoint x="660.18" y="674.99" as="targetPoint" />
          </mxGeometry>
        </mxCell>
        <mxCell id="Kmv-QArHyZlEkZVhdiJU-23" value="addToDoListItem(ToDoListItemCopy)" style="html=1;verticalAlign=bottom;startArrow=oval;startFill=1;endArrow=block;startSize=8;rounded=0;fontSize=11;" parent="Kmv-QArHyZlEkZVhdiJU-1" edge="1">
          <mxGeometry width="60" relative="1" as="geometry">
            <mxPoint x="229.32352941176464" y="721" as="sourcePoint" />
            <mxPoint x="879.5" y="721" as="targetPoint" />
          </mxGeometry>
        </mxCell>
        <mxCell id="Kmv-QArHyZlEkZVhdiJU-16" value="ToDoListItems" style="html=1;verticalAlign=bottom;endArrow=open;dashed=1;endSize=8;rounded=0;fontSize=11;" parent="Kmv-QArHyZlEkZVhdiJU-1" edge="1">
          <mxGeometry relative="1" as="geometry">
            <mxPoint x="879.5" y="501" as="sourcePoint" />
            <mxPoint x="229.5" y="501" as="targetPoint" />
          </mxGeometry>
        </mxCell>
        <mxCell id="r9oIlQdVXeNytlJ6-gOv-0" value="ToDoListItemCopy" style="html=1;verticalAlign=bottom;endArrow=open;dashed=1;endSize=8;rounded=0;fontSize=11;exitX=0;exitY=0.051;exitDx=0;exitDy=0;exitPerimeter=0;" parent="Kmv-QArHyZlEkZVhdiJU-1" edge="1">
          <mxGeometry relative="1" as="geometry">
            <mxPoint x="1040" y="594.24" as="sourcePoint" />
            <mxPoint x="230.05555555555554" y="594.24" as="targetPoint" />
          </mxGeometry>
        </mxCell>
      </root>
    </mxGraphModel>
  </diagram>
  <diagram name="SetDueDate" id="DUlCt0hbi9cV10Fyl-o0">
    <mxGraphModel dx="1036" dy="750" grid="1" gridSize="10" guides="1" tooltips="1" connect="1" arrows="1" fold="1" page="1" pageScale="1" pageWidth="1200" pageHeight="1600" math="0" shadow="0">
      <root>
        <mxCell id="3r7KVdHHWkU4kFBeQiwq-0" />
        <mxCell id="3r7KVdHHWkU4kFBeQiwq-1" parent="3r7KVdHHWkU4kFBeQiwq-0" />
        <mxCell id="3r7KVdHHWkU4kFBeQiwq-4" value="Attribute == DueDate" style="shape=umlFrame;whiteSpace=wrap;html=1;fontSize=11;width=140;height=34;" parent="3r7KVdHHWkU4kFBeQiwq-1" vertex="1">
          <mxGeometry x="50" y="320" width="1150" height="370" as="geometry" />
        </mxCell>
        <mxCell id="3r7KVdHHWkU4kFBeQiwq-6" value="" style="shape=umlLifeline;participant=umlActor;perimeter=lifelinePerimeter;whiteSpace=wrap;html=1;container=1;collapsible=0;recursiveResize=0;verticalAlign=top;spacingTop=36;outlineConnect=0;size=80;" parent="3r7KVdHHWkU4kFBeQiwq-1" vertex="1">
          <mxGeometry x="210" y="40" width="40" height="650" as="geometry" />
        </mxCell>
        <mxCell id="3r7KVdHHWkU4kFBeQiwq-7" value="selectAttributeToChange()" style="html=1;verticalAlign=bottom;startArrow=oval;startFill=1;endArrow=block;startSize=8;rounded=0;fontSize=11;" parent="3r7KVdHHWkU4kFBeQiwq-6" target="3r7KVdHHWkU4kFBeQiwq-8" edge="1">
          <mxGeometry width="60" relative="1" as="geometry">
            <mxPoint x="20" y="199" as="sourcePoint" />
            <mxPoint x="259.5" y="199" as="targetPoint" />
          </mxGeometry>
        </mxCell>
        <mxCell id="3r7KVdHHWkU4kFBeQiwq-8" value="&lt;u&gt;:UI&lt;/u&gt;" style="shape=umlLifeline;perimeter=lifelinePerimeter;whiteSpace=wrap;html=1;container=1;collapsible=0;recursiveResize=0;outlineConnect=0;fontSize=11;" parent="3r7KVdHHWkU4kFBeQiwq-1" vertex="1">
          <mxGeometry x="390" y="40" width="120" height="650" as="geometry" />
        </mxCell>
        <mxCell id="3r7KVdHHWkU4kFBeQiwq-9" value="selectToDoListItem()" style="html=1;verticalAlign=bottom;startArrow=oval;startFill=1;endArrow=block;startSize=8;rounded=0;fontSize=11;" parent="3r7KVdHHWkU4kFBeQiwq-1" edge="1">
          <mxGeometry width="60" relative="1" as="geometry">
            <mxPoint x="229.5" y="161" as="sourcePoint" />
            <mxPoint x="449.5" y="161" as="targetPoint" />
          </mxGeometry>
        </mxCell>
        <mxCell id="3r7KVdHHWkU4kFBeQiwq-11" value="ToDoListItem" style="html=1;verticalAlign=bottom;endArrow=open;dashed=1;endSize=8;rounded=0;fontSize=11;exitX=0.475;exitY=0.245;exitDx=0;exitDy=0;exitPerimeter=0;" parent="3r7KVdHHWkU4kFBeQiwq-1" edge="1">
          <mxGeometry relative="1" as="geometry">
            <mxPoint x="447" y="200.70000000000005" as="sourcePoint" />
            <mxPoint x="229.5" y="200.70000000000005" as="targetPoint" />
          </mxGeometry>
        </mxCell>
        <mxCell id="3r7KVdHHWkU4kFBeQiwq-12" value="Attribute" style="html=1;verticalAlign=bottom;endArrow=open;dashed=1;endSize=8;rounded=0;fontSize=11;entryX=0.55;entryY=0.362;entryDx=0;entryDy=0;entryPerimeter=0;" parent="3r7KVdHHWkU4kFBeQiwq-1" edge="1">
          <mxGeometry relative="1" as="geometry">
            <mxPoint x="449.5" y="280.31999999999994" as="sourcePoint" />
            <mxPoint x="232" y="280.31999999999994" as="targetPoint" />
          </mxGeometry>
        </mxCell>
        <mxCell id="k24d81G5ftyrUEqRWL9N-0" value="&lt;u&gt;:ToDoListItem&lt;/u&gt;" style="shape=umlLifeline;perimeter=lifelinePerimeter;whiteSpace=wrap;html=1;container=1;collapsible=0;recursiveResize=0;outlineConnect=0;fontSize=11;" parent="3r7KVdHHWkU4kFBeQiwq-1" vertex="1">
          <mxGeometry x="540" y="40" width="120" height="520" as="geometry" />
        </mxCell>
        <mxCell id="k24d81G5ftyrUEqRWL9N-1" value="setDueDate(DueDate)" style="html=1;verticalAlign=bottom;startArrow=oval;startFill=1;endArrow=block;startSize=8;rounded=0;fontSize=11;" parent="3r7KVdHHWkU4kFBeQiwq-1" target="k24d81G5ftyrUEqRWL9N-0" edge="1">
          <mxGeometry x="-0.5475" y="1" width="60" relative="1" as="geometry">
            <mxPoint x="229.5" y="427" as="sourcePoint" />
            <mxPoint x="629.5" y="427" as="targetPoint" />
            <mxPoint as="offset" />
          </mxGeometry>
        </mxCell>
        <mxCell id="btKfM7fVo1_qa7naM6d4-0" value="&lt;u&gt;:ToDoList&lt;/u&gt;" style="shape=umlLifeline;perimeter=lifelinePerimeter;whiteSpace=wrap;html=1;container=1;collapsible=0;recursiveResize=0;outlineConnect=0;fontSize=11;" parent="3r7KVdHHWkU4kFBeQiwq-1" vertex="1">
          <mxGeometry x="690" y="40" width="120" height="650" as="geometry" />
        </mxCell>
        <mxCell id="btKfM7fVo1_qa7naM6d4-1" value="&lt;u&gt;:ToDoListItemCopy&lt;/u&gt;" style="shape=umlLifeline;perimeter=lifelinePerimeter;whiteSpace=wrap;html=1;container=1;collapsible=0;recursiveResize=0;outlineConnect=0;fontSize=11;" parent="3r7KVdHHWkU4kFBeQiwq-1" vertex="1">
          <mxGeometry x="800" y="457" width="120" height="233" as="geometry" />
        </mxCell>
        <mxCell id="btKfM7fVo1_qa7naM6d4-2" value="ToDoListItem(ToDoListItem) &amp;lt;&amp;lt;create&amp;gt;&amp;gt;" style="html=1;verticalAlign=bottom;startArrow=oval;startFill=1;endArrow=block;startSize=8;rounded=0;fontSize=11;" parent="3r7KVdHHWkU4kFBeQiwq-1" edge="1">
          <mxGeometry x="-0.0521" y="3" width="60" relative="1" as="geometry">
            <mxPoint x="230" y="470" as="sourcePoint" />
            <mxPoint x="795.3100000000001" y="470" as="targetPoint" />
            <mxPoint as="offset" />
          </mxGeometry>
        </mxCell>
        <mxCell id="btKfM7fVo1_qa7naM6d4-3" value="removeToDoListItem(ToDoListItem)" style="html=1;verticalAlign=bottom;startArrow=oval;startFill=1;endArrow=block;startSize=8;rounded=0;fontSize=11;" parent="3r7KVdHHWkU4kFBeQiwq-1" edge="1">
          <mxGeometry width="60" relative="1" as="geometry">
            <mxPoint x="229.16666666666674" y="538" as="sourcePoint" />
            <mxPoint x="700.1099999999999" y="538" as="targetPoint" />
          </mxGeometry>
        </mxCell>
        <mxCell id="btKfM7fVo1_qa7naM6d4-4" value="&amp;lt;&amp;lt;delete&amp;gt;&amp;gt;" style="html=1;verticalAlign=bottom;startArrow=oval;startFill=1;endArrow=block;startSize=8;rounded=0;fontSize=11;entryX=0.576;entryY=0.479;entryDx=0;entryDy=0;entryPerimeter=0;" parent="3r7KVdHHWkU4kFBeQiwq-1" target="btKfM7fVo1_qa7naM6d4-10" edge="1">
          <mxGeometry width="60" relative="1" as="geometry">
            <mxPoint x="749.11" y="561.9900000000002" as="sourcePoint" />
            <mxPoint x="589" y="562" as="targetPoint" />
          </mxGeometry>
        </mxCell>
        <mxCell id="btKfM7fVo1_qa7naM6d4-7" value="&lt;u&gt;:Calendar&lt;/u&gt;" style="shape=umlLifeline;perimeter=lifelinePerimeter;whiteSpace=wrap;html=1;container=1;collapsible=0;recursiveResize=0;outlineConnect=0;fontSize=11;" parent="3r7KVdHHWkU4kFBeQiwq-1" vertex="1">
          <mxGeometry x="960" y="40" width="120" height="650" as="geometry" />
        </mxCell>
        <mxCell id="btKfM7fVo1_qa7naM6d4-10" value="" style="shape=umlDestroy;whiteSpace=wrap;html=1;strokeWidth=3;fontSize=11;" parent="3r7KVdHHWkU4kFBeQiwq-1" vertex="1">
          <mxGeometry x="584.61" y="546" width="30" height="30" as="geometry" />
        </mxCell>
        <mxCell id="btKfM7fVo1_qa7naM6d4-11" value="addToDoListItem(ToDoListItem)" style="html=1;verticalAlign=bottom;startArrow=oval;startFill=1;endArrow=block;startSize=8;rounded=0;fontSize=11;" parent="3r7KVdHHWkU4kFBeQiwq-1" edge="1">
          <mxGeometry width="60" relative="1" as="geometry">
            <mxPoint x="229.25" y="603" as="sourcePoint" />
            <mxPoint x="1019.5" y="603" as="targetPoint" />
          </mxGeometry>
        </mxCell>
        <mxCell id="btKfM7fVo1_qa7naM6d4-13" value="ToDoListItemCopy" style="html=1;verticalAlign=bottom;endArrow=open;dashed=1;endSize=8;rounded=0;fontSize=11;exitX=0;exitY=0.113;exitDx=0;exitDy=0;exitPerimeter=0;" parent="3r7KVdHHWkU4kFBeQiwq-1" edge="1">
          <mxGeometry relative="1" as="geometry">
            <mxPoint x="800" y="495.1199999999999" as="sourcePoint" />
            <mxPoint x="229.4473684210525" y="495.1199999999999" as="targetPoint" />
          </mxGeometry>
        </mxCell>
      </root>
    </mxGraphModel>
  </diagram>
</mxfile>
